/* XPM */
static char * D:\Eigene Dateien\Dokumente\trackerIcon_xpm[] = {
"50 50 80 1",
" 	c None",
".	c #000000",
"+	c #FFEEBE",
"@	c #FFE48C",
"#	c #FFE380",
"$	c #FFEBB1",
"%	c #FFFBF0",
"&	c #FFFFFF",
"*	c #FFDA0E",
"=	c #FFDA17",
"-	c #FFE173",
";	c #FFDC3D",
">	c #FFE8A3",
",	c #FFF3D4",
"'	c #FFF1CC",
")	c #FFE696",
"!	c #FFE799",
"~	c #FFE172",
"{	c #FFEAAE",
"]	c #FFE89F",
"^	c #FFDE57",
"/	c #FFDA1D",
"(	c #FFDF66",
"_	c #469AFF",
":	c #FFFAEF",
"<	c #FFE590",
"[	c #FFDF63",
"}	c #FDD80E",
"|	c #FFDD4B",
"1	c #FFE592",
"2	c #FFDB38",
"3	c #0D0900",
"4	c #FFF2CF",
"5	c #FFF0C5",
"6	c #FFE06C",
"7	c #FEDA1D",
"8	c #FED90E",
"9	c #FFDE5F",
"0	c #F8D749",
"a	c #FFDB2E",
"b	c #FFF3D3",
"c	c #FEDA1B",
"d	c #FFE382",
"e	c #FBD60E",
"f	c #FFF6DF",
"g	c #F8D64B",
"h	c #F9D50D",
"i	c #FFDD49",
"j	c #F8D40D",
"k	c #FFF7E1",
"l	c #FFDE55",
"m	c #F6D20D",
"n	c #FFF2D0",
"o	c #FDD923",
"p	c #F2CF0D",
"q	c #FFEEBF",
"r	c #FFEFC1",
"s	c #FFDA11",
"t	c #FFE58F",
"u	c #78A4EF",
"v	c #FFE176",
"w	c #FFFAED",
"x	c #489AFE",
"y	c #4B99FC",
"z	c #FFEBB2",
"A	c #4C99FB",
"B	c #FFF1CD",
"C	c #479AFF",
"D	c #FFDC40",
"E	c #FFF6DD",
"F	c #5099F9",
"G	c #FBE8B8",
"H	c #FFE069",
"I	c #FFF9EC",
"J	c #F9D646",
"K	c #F6D30D",
"L	c #FFFFFE",
"M	c #FFFDFA",
"N	c #F9D40D",
"O	c #FFF7E3",
"        .............+@####$+%&&                  ",
"        .***********.******==**-$%                ",
"        .***********.************;>%              ",
"        .***********.**************;>             ",
"        ...*********.***************=;,           ",
"         '.*********.*****************=)          ",
"       &!*.*********.~{{{{]^/**********=(         ",
"      &!**.*********._______&:</*********[        ",
"     &!***.}********.__________:]|********[       ",
"     '****.*********.____________:<********1      ",
"    &2****.*********3_____________&4*******=5     ",
"   &6*****.*********3______________&47******2,    ",
"   '******.8********3_______________&47******<    ",
"  &9*****0.*********3________________&47*****ab   ",
"  'c****=+.*********3_________________:d******<%  ",
"  9*****#&.********e3__________________fg******b  ",
" '/****=+&.********h3__________________:d******<% ",
" @*****i&_.********j.___________________47*****^k ",
"&l****=+&_.********m.___________________:d******n ",
"&o****/&&_.********p.___________________&q******r ",
"'s****i___.*********.____________________47*****t%",
"+s****#___.*********.____________________f|*****d:",
"*****=+___.*********.____________________ud*****^k",
"#****=+___.*********.____________________ud*****|f",
"#****=+___.*********.____________________ud*****|f",
"#****=+___.*********.____________________ud*****|f",
"#****=+___.*********.____________________ud******f",
"$*****#___.*********.____________________f|*****vw",
"+*****i&_x.*********.____________________47*****d ",
"%*****7&_y.*********.____________________q******z ",
"&*****=+_A.*********.___________________:d******B ",
"&-*****i&C.*********.___________________47*****DE ",
" $*****=+C.*********.__________________ud******v  ",
" %******#F.*********.__________________f|******q  ",
" &>*****=G.*********._________________ud******HI  ",
"  %******J.*********._________________4/******q   ",
"  &>******.*********.........................*I   ",
"   %*****8.K********************************.qL   ",
"   &,****}.*********************************.M    ",
"    &)***N.*********************************.     ",
"     %****.*********************************.     ",
"     &O***.*********************************.     ",
"      &O**.*********************************.     ",
"       &O1.*********************************.     ",
"         %.*********************************.     ",
"          .*********************************.     ",
"          .........................3..3......     ",
"                *****************                 ",
"                    **********                    ",
"                                                  "};
